# MagicaVoxel @ Ephtracy

# group
o 

# material
mtllib radhand.mtl
usemtl palette

# normals
vn -1 0 0
vn 1 0 0
vn 0 0 1
vn 0 0 -1
vn 0 -1 0
vn 0 1 0

# texcoords
vt 0.0332031 0.5
vt 0.0644531 0.5
vt 0.0683594 0.5
vt 0.138672 0.5
vt 0.232422 0.5
vt 0.396484 0.5
vt 0.603516 0.5
vt 0.623047 0.5
vt 0.767578 0.5
vt 0.994141 0.5

# verts
v -0.6 0.3 -2.98023e-008
v -0.6 0.3 -0.1
v -0.6 0.4 -2.98023e-008
v -0.6 0.4 -0.1
v -0.5 0.4 -2.98023e-008
v -0.5 0.4 -0.1
v -0.5 0.5 -2.98023e-008
v -0.5 0.5 -0.1
v -0.4 0.2 0.3
v -0.4 0.2 -0.4
v -0.4 0.4 0.3
v -0.4 0.4 -2.98023e-008
v -0.4 0.4 -0.1
v -0.4 0.4 -0.4
v -0.4 0.5 -2.98023e-008
v -0.4 0.5 -0.1
v -0.4 0.6 -2.98023e-008
v -0.4 0.6 -0.1
v -0.4 0.6 -0.4
v -0.4 0.8 -2.98023e-008
v -0.4 0.8 -0.1
v -0.4 1.2 -2.98023e-008
v -0.4 1.2 -0.1
v -0.4 1.2 -0.4
v -0.3 0.4 0.2
v -0.3 0.4 -0.3
v -0.3 0.5 -2.98023e-008
v -0.3 0.5 -0.1
v -0.3 0.6 0.2
v -0.3 0.6 -2.98023e-008
v -0.3 0.6 -0.1
v -0.3 0.6 -0.3
v -0.3 0.8 0.1
v -0.3 0.8 -2.98023e-008
v -0.3 0.9 0.2
v -0.3 0.9 0.1
v -0.3 1.1 0.2
v -0.3 1.1 -2.98023e-008
v -0.2 0 -2.98023e-008
v -0.2 0 -0.1
v -0.2 0.1 -2.98023e-008
v -0.2 0.1 -0.1
v -0.2 0.2 -2.98023e-008
v -0.2 0.2 -0.1
v -0.2 0.6 0.1
v -0.2 0.6 -2.98023e-008
v -0.2 0.7 0.1
v -0.2 0.7 -2.98023e-008
v -0.2 0.8 0.1
v -0.2 0.8 -2.98023e-008
v 0.1 0 -2.98023e-008
v 0.1 0 -0.1
v 0.1 0.1 -2.98023e-008
v 0.1 0.1 -0.1
v 0.1 0.2 -2.98023e-008
v 0.1 0.2 -0.1
v 0.2 0.3 0.2
v 0.2 0.3 -0.1
v 0.2 0.4 0.2
v 0.2 0.4 0.1
v 0.2 0.4 -2.98023e-008
v 0.2 0.4 -0.1
v 0.4 0.4 -2.98023e-008
v 0.4 0.4 -0.1
v 0.4 0.5 -2.98023e-008
v 0.4 0.5 -0.1
v 0.5 0.3 -2.98023e-008
v 0.5 0.3 -0.1
v 0.5 0.4 -2.98023e-008
v 0.5 0.4 -0.1
v -0.5 0.3 -2.98023e-008
v -0.5 0.3 -0.1
v -0.5 0.4 -2.98023e-008
v -0.5 0.4 -0.1
v -0.4 0.4 -2.98023e-008
v -0.4 0.4 -0.1
v -0.4 0.5 -2.98023e-008
v -0.4 0.5 -0.1
v -0.3 0.3 0.2
v -0.3 0.3 -0.1
v -0.3 0.4 0.2
v -0.3 0.4 -0.1
v -0.1 0 -2.98023e-008
v -0.1 0 -0.1
v -0.1 0.1 -2.98023e-008
v -0.1 0.1 -0.1
v -0.1 0.2 -2.98023e-008
v -0.1 0.2 -0.1
v 0.2 0 -2.98023e-008
v 0.2 0 -0.1
v 0.2 0.1 -2.98023e-008
v 0.2 0.1 -0.1
v 0.2 0.2 -2.98023e-008
v 0.2 0.2 -0.1
v 0.2 0.5 -0.1
v 0.2 0.5 -0.2
v 0.2 0.6 0.1
v 0.2 0.6 -2.98023e-008
v 0.2 0.6 -0.1
v 0.2 0.6 -0.2
v 0.2 0.7 0.1
v 0.2 0.7 -2.98023e-008
v 0.2 0.8 0.1
v 0.2 0.8 -2.98023e-008
v 0.3 0.4 0.2
v 0.3 0.4 -0.3
v 0.3 0.5 -2.98023e-008
v 0.3 0.5 -0.1
v 0.3 0.5 -0.2
v 0.3 0.6 0.2
v 0.3 0.6 -2.98023e-008
v 0.3 0.6 -0.2
v 0.3 0.6 -0.3
v 0.3 0.8 0.1
v 0.3 0.8 -2.98023e-008
v 0.3 0.9 0.2
v 0.3 0.9 0.1
v 0.3 1.1 0.2
v 0.3 1.1 -2.98023e-008
v 0.4 0.2 0.3
v 0.4 0.2 -0.4
v 0.4 0.4 0.3
v 0.4 0.4 -2.98023e-008
v 0.4 0.4 -0.1
v 0.4 0.4 -0.4
v 0.4 0.5 -2.98023e-008
v 0.4 0.5 -0.1
v 0.4 0.6 -2.98023e-008
v 0.4 0.6 -0.1
v 0.4 0.6 -0.4
v 0.4 0.8 -2.98023e-008
v 0.4 0.8 -0.1
v 0.4 1.2 -2.98023e-008
v 0.4 1.2 -0.1
v 0.4 1.2 -0.4
v 0.5 0.4 -2.98023e-008
v 0.5 0.4 -0.1
v 0.5 0.5 -2.98023e-008
v 0.5 0.5 -0.1
v 0.6 0.3 -2.98023e-008
v 0.6 0.3 -0.1
v 0.6 0.4 -2.98023e-008
v 0.6 0.4 -0.1
v -0.4 0.2 0.3
v -0.4 0.4 0.3
v 0.4 0.2 0.3
v 0.4 0.4 0.3
v -0.3 0.4 0.2
v -0.3 0.6 0.2
v -0.3 0.9 0.2
v -0.3 1.1 0.2
v 0.3 0.4 0.2
v 0.3 0.6 0.2
v 0.3 0.9 0.2
v 0.3 1.1 0.2
v -0.3 0.8 0.1
v -0.3 0.9 0.1
v -0.2 0.6 0.1
v -0.2 0.7 0.1
v -0.2 0.8 0.1
v -0.2 0.9 0.1
v -0.1 0.8 0.1
v -0.1 0.9 0.1
v 0.1 0.8 0.1
v 0.1 0.9 0.1
v 0.2 0.6 0.1
v 0.2 0.7 0.1
v 0.2 0.8 0.1
v 0.2 0.9 0.1
v 0.3 0.8 0.1
v 0.3 0.9 0.1
v -0.6 0.3 -2.98023e-008
v -0.6 0.4 -2.98023e-008
v -0.5 0.3 -2.98023e-008
v -0.5 0.4 -2.98023e-008
v -0.5 0.5 -2.98023e-008
v -0.4 0.4 -2.98023e-008
v -0.4 0.5 -2.98023e-008
v -0.4 0.6 -2.98023e-008
v -0.4 0.8 -2.98023e-008
v -0.4 1.2 -2.98023e-008
v -0.3 0.5 -2.98023e-008
v -0.3 0.6 -2.98023e-008
v -0.3 0.7 -2.98023e-008
v -0.3 0.8 -2.98023e-008
v -0.3 1.1 -2.98023e-008
v -0.2 0 -2.98023e-008
v -0.2 0.1 -2.98023e-008
v -0.2 0.2 -2.98023e-008
v -0.2 0.6 -2.98023e-008
v -0.2 0.7 -2.98023e-008
v -0.2 0.8 -2.98023e-008
v -0.1 0 -2.98023e-008
v -0.1 0.1 -2.98023e-008
v -0.1 0.2 -2.98023e-008
v 0.1 0 -2.98023e-008
v 0.1 0.1 -2.98023e-008
v 0.1 0.2 -2.98023e-008
v 0.2 0 -2.98023e-008
v 0.2 0.1 -2.98023e-008
v 0.2 0.2 -2.98023e-008
v 0.2 0.6 -2.98023e-008
v 0.2 0.7 -2.98023e-008
v 0.2 0.8 -2.98023e-008
v 0.3 0.5 -2.98023e-008
v 0.3 0.6 -2.98023e-008
v 0.3 0.7 -2.98023e-008
v 0.3 0.8 -2.98023e-008
v 0.3 1.1 -2.98023e-008
v 0.4 0.4 -2.98023e-008
v 0.4 0.5 -2.98023e-008
v 0.4 0.6 -2.98023e-008
v 0.4 0.8 -2.98023e-008
v 0.4 1.2 -2.98023e-008
v 0.5 0.3 -2.98023e-008
v 0.5 0.4 -2.98023e-008
v 0.5 0.5 -2.98023e-008
v 0.6 0.3 -2.98023e-008
v 0.6 0.4 -2.98023e-008
v -0.3 0.3 -0.1
v -0.3 0.4 -0.1
v -0.2 0.4 -0.1
v -0.1 0.4 -0.1
v 0.1 0.4 -0.1
v 0.2 0.3 -0.1
v 0.2 0.4 -0.1
v 0.2 0.5 -0.2
v 0.2 0.6 -0.2
v 0.3 0.5 -0.2
v 0.3 0.6 -0.2
v -0.3 0.3 0.2
v -0.3 0.4 0.2
v 0.2 0.3 0.2
v 0.2 0.4 0.2
v -0.6 0.3 -0.1
v -0.6 0.4 -0.1
v -0.5 0.3 -0.1
v -0.5 0.4 -0.1
v -0.5 0.5 -0.1
v -0.4 0.4 -0.1
v -0.4 0.5 -0.1
v -0.4 0.6 -0.1
v -0.3 0.5 -0.1
v -0.3 0.6 -0.1
v -0.2 0 -0.1
v -0.2 0.1 -0.1
v -0.2 0.2 -0.1
v -0.1 0 -0.1
v -0.1 0.1 -0.1
v -0.1 0.2 -0.1
v 0.1 0 -0.1
v 0.1 0.1 -0.1
v 0.1 0.2 -0.1
v 0.2 0 -0.1
v 0.2 0.1 -0.1
v 0.2 0.2 -0.1
v 0.2 0.5 -0.1
v 0.2 0.6 -0.1
v 0.3 0.5 -0.1
v 0.3 0.6 -0.1
v 0.4 0.4 -0.1
v 0.4 0.5 -0.1
v 0.4 0.6 -0.1
v 0.5 0.3 -0.1
v 0.5 0.4 -0.1
v 0.5 0.5 -0.1
v 0.6 0.3 -0.1
v 0.6 0.4 -0.1
v -0.3 0.4 -0.3
v -0.3 0.6 -0.3
v 0.3 0.4 -0.3
v 0.3 0.6 -0.3
v -0.4 0.2 -0.4
v -0.4 0.4 -0.4
v -0.4 0.6 -0.4
v -0.4 1.2 -0.4
v 0.4 0.2 -0.4
v 0.4 0.4 -0.4
v 0.4 0.6 -0.4
v 0.4 1.2 -0.4
v -0.2 0 -2.98023e-008
v -0.1 0 -2.98023e-008
v 0.1 0 -2.98023e-008
v 0.2 0 -2.98023e-008
v -0.2 0 -0.1
v -0.1 0 -0.1
v 0.1 0 -0.1
v 0.2 0 -0.1
v -0.4 0.2 0.3
v 0.4 0.2 0.3
v -0.2 0.2 -2.98023e-008
v -0.1 0.2 -2.98023e-008
v 0.1 0.2 -2.98023e-008
v 0.2 0.2 -2.98023e-008
v -0.2 0.2 -0.1
v -0.1 0.2 -0.1
v 0.1 0.2 -0.1
v 0.2 0.2 -0.1
v -0.4 0.2 -0.4
v 0.4 0.2 -0.4
v -0.6 0.3 -2.98023e-008
v -0.5 0.3 -2.98023e-008
v 0.5 0.3 -2.98023e-008
v 0.6 0.3 -2.98023e-008
v -0.6 0.3 -0.1
v -0.5 0.3 -0.1
v 0.5 0.3 -0.1
v 0.6 0.3 -0.1
v -0.3 0.4 0.2
v 0.2 0.4 0.2
v -0.2 0.4 0.1
v -0.1 0.4 0.1
v 0 0.4 0.1
v 0.1 0.4 0.1
v 0.2 0.4 0.1
v -0.5 0.4 -2.98023e-008
v -0.4 0.4 -2.98023e-008
v -0.2 0.4 -2.98023e-008
v -0.1 0.4 -2.98023e-008
v 0 0.4 -2.98023e-008
v 0.1 0.4 -2.98023e-008
v 0.2 0.4 -2.98023e-008
v 0.4 0.4 -2.98023e-008
v 0.5 0.4 -2.98023e-008
v -0.5 0.4 -0.1
v -0.4 0.4 -0.1
v -0.3 0.4 -0.1
v -0.2 0.4 -0.1
v -0.1 0.4 -0.1
v 0.1 0.4 -0.1
v 0.2 0.4 -0.1
v 0.4 0.4 -0.1
v 0.5 0.4 -0.1
v -0.4 0.5 -2.98023e-008
v -0.3 0.5 -2.98023e-008
v 0.3 0.5 -2.98023e-008
v 0.4 0.5 -2.98023e-008
v -0.4 0.5 -0.1
v -0.3 0.5 -0.1
v 0.3 0.5 -0.1
v 0.4 0.5 -0.1
v -0.4 0.6 -0.1
v -0.3 0.6 -0.1
v 0.2 0.6 -0.1
v 0.3 0.6 -0.1
v 0.4 0.6 -0.1
v 0.2 0.6 -0.2
v 0.3 0.6 -0.2
v -0.3 0.6 -0.3
v 0.3 0.6 -0.3
v -0.4 0.6 -0.4
v 0.4 0.6 -0.4
v -0.3 0.8 0.1
v -0.2 0.8 0.1
v 0.2 0.8 0.1
v 0.3 0.8 0.1
v -0.3 0.8 -2.98023e-008
v -0.2 0.8 -2.98023e-008
v 0.2 0.8 -2.98023e-008
v 0.3 0.8 -2.98023e-008
v -0.3 0.9 0.2
v 0.3 0.9 0.2
v -0.3 0.9 0.1
v -0.2 0.9 0.1
v -0.1 0.9 0.1
v 0.1 0.9 0.1
v 0.2 0.9 0.1
v 0.3 0.9 0.1
v -0.3 0.3 0.2
v 0.2 0.3 0.2
v -0.3 0.3 -0.1
v 0.2 0.3 -0.1
v -0.4 0.4 0.3
v 0.4 0.4 0.3
v -0.3 0.4 0.2
v 0.3 0.4 0.2
v -0.6 0.4 -2.98023e-008
v -0.5 0.4 -2.98023e-008
v -0.4 0.4 -2.98023e-008
v 0.4 0.4 -2.98023e-008
v 0.5 0.4 -2.98023e-008
v 0.6 0.4 -2.98023e-008
v -0.6 0.4 -0.1
v -0.5 0.4 -0.1
v -0.4 0.4 -0.1
v 0.4 0.4 -0.1
v 0.5 0.4 -0.1
v 0.6 0.4 -0.1
v -0.3 0.4 -0.3
v 0.3 0.4 -0.3
v -0.4 0.4 -0.4
v 0.4 0.4 -0.4
v -0.5 0.5 -2.98023e-008
v -0.4 0.5 -2.98023e-008
v 0.4 0.5 -2.98023e-008
v 0.5 0.5 -2.98023e-008
v -0.5 0.5 -0.1
v -0.4 0.5 -0.1
v 0.2 0.5 -0.1
v 0.3 0.5 -0.1
v 0.4 0.5 -0.1
v 0.5 0.5 -0.1
v 0.2 0.5 -0.2
v 0.3 0.5 -0.2
v -0.3 0.6 0.2
v 0.3 0.6 0.2
v -0.2 0.6 0.1
v 0.2 0.6 0.1
v -0.3 0.6 -2.98023e-008
v -0.2 0.6 -2.98023e-008
v 0.2 0.6 -2.98023e-008
v 0.3 0.6 -2.98023e-008
v -0.3 1.1 0.2
v 0.3 1.1 0.2
v -0.3 1.1 -2.98023e-008
v 0.3 1.1 -2.98023e-008
v -0.4 1.2 -2.98023e-008
v 0.4 1.2 -2.98023e-008
v -0.4 1.2 -0.1
v 0.4 1.2 -0.1
v -0.4 1.2 -0.4
v 0.4 1.2 -0.4

# faces
f 3/1/1 2/1/1 1/1/1
f 4/1/1 2/1/1 3/1/1
f 7/1/1 6/1/1 5/1/1
f 8/1/1 6/1/1 7/1/1
f 11/4/1 10/4/1 9/4/1
f 12/4/1 10/4/1 11/4/1
f 13/4/1 10/4/1 12/4/1
f 14/4/1 10/4/1 13/4/1
f 17/1/1 16/1/1 15/1/1
f 18/1/1 16/1/1 17/1/1
f 20/5/1 18/5/1 17/5/1
f 21/4/1 19/4/1 18/4/1
f 21/5/1 18/5/1 20/5/1
f 22/6/1 21/6/1 20/6/1
f 23/4/1 19/4/1 21/4/1
f 23/6/1 21/6/1 22/6/1
f 24/4/1 19/4/1 23/4/1
f 27/4/1 26/4/1 25/4/1
f 28/4/1 26/4/1 27/4/1
f 29/4/1 27/4/1 25/4/1
f 30/4/1 27/4/1 29/4/1
f 31/4/1 26/4/1 28/4/1
f 32/4/1 26/4/1 31/4/1
f 36/2/1 34/2/1 33/2/1
f 37/2/1 36/2/1 35/2/1
f 38/2/1 34/2/1 36/2/1
f 38/2/1 36/2/1 37/2/1
f 41/6/1 40/6/1 39/6/1
f 42/6/1 40/6/1 41/6/1
f 43/1/1 42/1/1 41/1/1
f 44/1/1 42/1/1 43/1/1
f 47/4/1 46/4/1 45/4/1
f 48/4/1 46/4/1 47/4/1
f 49/1/1 48/1/1 47/1/1
f 50/1/1 48/1/1 49/1/1
f 53/6/1 52/6/1 51/6/1
f 54/6/1 52/6/1 53/6/1
f 55/1/1 54/1/1 53/1/1
f 56/1/1 54/1/1 55/1/1
f 59/4/1 58/4/1 57/4/1
f 60/4/1 58/4/1 59/4/1
f 61/4/1 58/4/1 60/4/1
f 62/4/1 58/4/1 61/4/1
f 65/1/1 64/1/1 63/1/1
f 66/1/1 64/1/1 65/1/1
f 69/1/1 68/1/1 67/1/1
f 70/1/1 68/1/1 69/1/1
f 71/1/2 72/1/2 73/1/2
f 73/1/2 72/1/2 74/1/2
f 75/1/2 76/1/2 77/1/2
f 77/1/2 76/1/2 78/1/2
f 79/4/2 80/4/2 81/4/2
f 81/4/2 80/4/2 82/4/2
f 83/6/2 84/6/2 85/6/2
f 85/6/2 84/6/2 86/6/2
f 85/1/2 86/1/2 87/1/2
f 87/1/2 86/1/2 88/1/2
f 89/6/2 90/6/2 91/6/2
f 91/6/2 90/6/2 92/6/2
f 91/1/2 92/1/2 93/1/2
f 93/1/2 92/1/2 94/1/2
f 95/4/2 96/4/2 99/4/2
f 99/4/2 96/4/2 100/4/2
f 97/4/2 98/4/2 101/4/2
f 101/4/2 98/4/2 102/4/2
f 101/1/2 102/1/2 103/1/2
f 103/1/2 102/1/2 104/1/2
f 105/4/2 106/4/2 107/4/2
f 107/4/2 106/4/2 108/4/2
f 108/4/2 106/4/2 109/4/2
f 105/4/2 107/4/2 110/4/2
f 110/4/2 107/4/2 111/4/2
f 109/4/2 106/4/2 112/4/2
f 112/4/2 106/4/2 113/4/2
f 114/2/2 115/2/2 117/2/2
f 116/2/2 117/2/2 118/2/2
f 117/2/2 115/2/2 119/2/2
f 118/2/2 117/2/2 119/2/2
f 120/4/2 121/4/2 122/4/2
f 122/4/2 121/4/2 123/4/2
f 123/4/2 121/4/2 124/4/2
f 124/4/2 121/4/2 125/4/2
f 126/1/2 127/1/2 128/1/2
f 128/1/2 127/1/2 129/1/2
f 128/5/2 129/5/2 131/5/2
f 129/4/2 130/4/2 132/4/2
f 131/5/2 129/5/2 132/5/2
f 131/6/2 132/6/2 133/6/2
f 132/4/2 130/4/2 134/4/2
f 133/6/2 132/6/2 134/6/2
f 134/4/2 130/4/2 135/4/2
f 136/1/2 137/1/2 138/1/2
f 138/1/2 137/1/2 139/1/2
f 140/1/2 141/1/2 142/1/2
f 142/1/2 141/1/2 143/1/2
f 146/4/3 145/4/3 144/4/3
f 147/4/3 145/4/3 146/4/3
f 152/4/3 149/4/3 148/4/3
f 153/4/3 149/4/3 152/4/3
f 154/2/3 151/2/3 150/2/3
f 155/2/3 151/2/3 154/2/3
f 160/2/3 157/2/3 156/2/3
f 161/2/3 157/2/3 160/2/3
f 162/1/3 160/1/3 159/1/3
f 162/10/3 161/10/3 160/10/3
f 163/10/3 161/10/3 162/10/3
f 164/1/3 162/1/3 159/1/3
f 164/1/3 163/1/3 162/1/3
f 165/1/3 163/1/3 164/1/3
f 166/4/3 159/4/3 158/4/3
f 167/1/3 164/1/3 159/1/3
f 167/4/3 159/4/3 166/4/3
f 168/10/3 165/10/3 164/10/3
f 168/1/3 164/1/3 167/1/3
f 169/10/3 165/10/3 168/10/3
f 170/2/3 169/2/3 168/2/3
f 171/2/3 169/2/3 170/2/3
f 174/1/3 173/1/3 172/1/3
f 175/1/3 173/1/3 174/1/3
f 177/1/3 176/1/3 175/1/3
f 178/1/3 176/1/3 177/1/3
f 182/1/3 179/1/3 178/1/3
f 183/5/3 180/5/3 179/5/3
f 183/1/3 179/1/3 182/1/3
f 184/5/3 180/5/3 183/5/3
f 185/6/3 181/6/3 180/6/3
f 185/5/3 180/5/3 184/5/3
f 186/6/3 181/6/3 185/6/3
f 190/5/3 184/5/3 183/5/3
f 191/2/3 185/2/3 184/2/3
f 191/5/3 184/5/3 190/5/3
f 192/2/3 185/2/3 191/2/3
f 193/6/3 188/6/3 187/6/3
f 194/1/3 189/1/3 188/1/3
f 194/6/3 188/6/3 193/6/3
f 195/1/3 189/1/3 194/1/3
f 199/6/3 197/6/3 196/6/3
f 200/1/3 198/1/3 197/1/3
f 200/6/3 197/6/3 199/6/3
f 201/1/3 198/1/3 200/1/3
f 206/5/3 203/5/3 202/5/3
f 207/2/3 204/2/3 203/2/3
f 207/5/3 203/5/3 206/5/3
f 208/2/3 204/2/3 207/2/3
f 209/6/3 181/6/3 186/6/3
f 211/1/3 206/1/3 205/1/3
f 212/5/3 208/5/3 207/5/3
f 212/5/3 207/5/3 206/5/3
f 212/1/3 206/1/3 211/1/3
f 213/6/3 209/6/3 208/6/3
f 213/5/3 208/5/3 212/5/3
f 214/6/3 181/6/3 209/6/3
f 214/6/3 209/6/3 213/6/3
f 216/1/3 211/1/3 210/1/3
f 217/1/3 211/1/3 216/1/3
f 218/1/3 216/1/3 215/1/3
f 219/1/3 216/1/3 218/1/3
f 222/4/3 221/4/3 220/4/3
f 223/4/3 222/4/3 220/4/3
f 224/4/3 223/4/3 220/4/3
f 225/4/3 224/4/3 220/4/3
f 226/4/3 224/4/3 225/4/3
f 229/4/3 228/4/3 227/4/3
f 230/4/3 228/4/3 229/4/3
f 231/4/4 232/4/4 233/4/4
f 233/4/4 232/4/4 234/4/4
f 235/1/4 236/1/4 237/1/4
f 237/1/4 236/1/4 238/1/4
f 238/1/4 239/1/4 240/1/4
f 240/1/4 239/1/4 241/1/4
f 241/1/4 242/1/4 243/1/4
f 243/1/4 242/1/4 244/1/4
f 245/6/4 246/6/4 248/6/4
f 246/1/4 247/1/4 249/1/4
f 248/6/4 246/6/4 249/6/4
f 249/1/4 247/1/4 250/1/4
f 251/6/4 252/6/4 254/6/4
f 252/1/4 253/1/4 255/1/4
f 254/6/4 252/6/4 255/6/4
f 255/1/4 253/1/4 256/1/4
f 257/4/4 258/4/4 259/4/4
f 259/4/4 258/4/4 260/4/4
f 259/1/4 260/1/4 262/1/4
f 262/1/4 260/1/4 263/1/4
f 261/1/4 262/1/4 265/1/4
f 265/1/4 262/1/4 266/1/4
f 264/1/4 265/1/4 267/1/4
f 267/1/4 265/1/4 268/1/4
f 269/4/4 270/4/4 271/4/4
f 271/4/4 270/4/4 272/4/4
f 273/4/4 274/4/4 277/4/4
f 277/4/4 274/4/4 278/4/4
f 275/4/4 276/4/4 279/4/4
f 279/4/4 276/4/4 280/4/4
f 285/6/5 282/6/5 281/6/5
f 286/6/5 282/6/5 285/6/5
f 287/6/5 284/6/5 283/6/5
f 288/6/5 284/6/5 287/6/5
f 291/4/5 290/4/5 289/4/5
f 292/4/5 290/4/5 291/4/5
f 293/4/5 290/4/5 292/4/5
f 294/4/5 290/4/5 293/4/5
f 295/4/5 291/4/5 289/4/5
f 296/4/5 293/4/5 292/4/5
f 297/4/5 293/4/5 296/4/5
f 298/4/5 290/4/5 294/4/5
f 299/4/5 297/4/5 296/4/5
f 299/4/5 298/4/5 297/4/5
f 299/4/5 295/4/5 289/4/5
f 299/4/5 296/4/5 295/4/5
f 300/4/5 290/4/5 298/4/5
f 300/4/5 298/4/5 299/4/5
f 305/1/5 302/1/5 301/1/5
f 306/1/5 302/1/5 305/1/5
f 307/1/5 304/1/5 303/1/5
f 308/1/5 304/1/5 307/1/5
f 311/4/5 310/4/5 309/4/5
f 312/4/5 310/4/5 311/4/5
f 313/4/5 310/4/5 312/4/5
f 314/4/5 310/4/5 313/4/5
f 315/4/5 310/4/5 314/4/5
f 318/4/5 311/4/5 309/4/5
f 318/7/5 312/7/5 311/7/5
f 319/9/5 313/9/5 312/9/5
f 319/7/5 312/7/5 318/7/5
f 320/7/5 314/7/5 313/7/5
f 320/9/5 313/9/5 319/9/5
f 321/9/5 315/9/5 314/9/5
f 321/7/5 314/7/5 320/7/5
f 322/9/5 315/9/5 321/9/5
f 325/1/5 317/1/5 316/1/5
f 326/1/5 317/1/5 325/1/5
f 327/4/5 318/4/5 309/4/5
f 328/9/5 319/9/5 318/9/5
f 328/4/5 318/4/5 327/4/5
f 329/3/5 320/3/5 319/3/5
f 329/9/5 319/9/5 328/9/5
f 329/3/5 321/3/5 320/3/5
f 330/7/5 322/7/5 321/7/5
f 330/3/5 321/3/5 329/3/5
f 331/7/5 322/7/5 330/7/5
f 332/1/5 324/1/5 323/1/5
f 333/1/5 324/1/5 332/1/5
f 338/1/5 335/1/5 334/1/5
f 339/1/5 335/1/5 338/1/5
f 340/1/5 337/1/5 336/1/5
f 341/1/5 337/1/5 340/1/5
f 347/2/5 345/2/5 344/2/5
f 348/4/5 346/4/5 345/4/5
f 348/2/5 345/2/5 347/2/5
f 349/4/5 343/4/5 342/4/5
f 350/4/5 346/4/5 348/4/5
f 351/4/5 349/4/5 342/4/5
f 351/4/5 350/4/5 349/4/5
f 352/4/5 346/4/5 350/4/5
f 352/4/5 350/4/5 351/4/5
f 357/2/5 354/2/5 353/2/5
f 358/2/5 354/2/5 357/2/5
f 359/2/5 356/2/5 355/2/5
f 360/2/5 356/2/5 359/2/5
f 363/2/5 362/2/5 361/2/5
f 364/2/5 362/2/5 363/2/5
f 365/2/5 362/2/5 364/2/5
f 366/2/5 362/2/5 365/2/5
f 367/2/5 362/2/5 366/2/5
f 368/2/5 362/2/5 367/2/5
f 369/4/6 370/4/6 371/4/6
f 371/4/6 370/4/6 372/4/6
f 373/4/6 374/4/6 375/4/6
f 375/4/6 374/4/6 376/4/6
f 373/4/6 375/4/6 379/4/6
f 376/4/6 374/4/6 380/4/6
f 377/1/6 378/1/6 383/1/6
f 383/1/6 378/1/6 384/1/6
f 379/4/6 375/4/6 385/4/6
f 376/4/6 380/4/6 386/4/6
f 381/1/6 382/1/6 387/1/6
f 387/1/6 382/1/6 388/1/6
f 385/4/6 375/4/6 389/4/6
f 376/4/6 386/4/6 390/4/6
f 385/4/6 389/4/6 391/4/6
f 389/4/6 390/4/6 391/4/6
f 390/4/6 386/4/6 392/4/6
f 391/4/6 390/4/6 392/4/6
f 393/1/6 394/1/6 397/1/6
f 397/1/6 394/1/6 398/1/6
f 395/1/6 396/1/6 401/1/6
f 401/1/6 396/1/6 402/1/6
f 399/4/6 400/4/6 403/4/6
f 403/4/6 400/4/6 404/4/6
f 405/4/6 406/4/6 407/4/6
f 407/4/6 406/4/6 408/4/6
f 405/4/6 407/4/6 409/4/6
f 409/4/6 407/4/6 410/4/6
f 408/4/6 406/4/6 411/4/6
f 411/4/6 406/4/6 412/4/6
f 413/2/6 414/2/6 415/2/6
f 415/2/6 414/2/6 416/2/6
f 417/6/6 418/6/6 419/6/6
f 419/6/6 418/6/6 420/6/6
f 419/4/6 420/4/6 421/4/6
f 421/4/6 420/4/6 422/4/6
